 <svg  version="1.0" xmlns="http://www.w3.org/2000/svg"  width="300.000000pt" height="300.000000pt" viewBox="0 0 300.000000 300.000000"  preserveAspectRatio="xMidYMid meet">  <g transform="translate(0.000000,300.000000) scale(0.100000,-0.100000)" fill="#bdbdbd" stroke="none"> <path d="M0 1500 l0 -1500 1500 0 1500 0 0 1500 0 1500 -1500 0 -1500 0 0 -1500z m1455 1479 c-16 -5 -75 -13 -130 -19 -79 -9 -227 -35 -300 -54 -63 -16 -233 -95 -279 -130 -19 -14 -38 -26 -42 -26 -5 0 -45 -38 -90 -85 -94 -98 -152 -202 -184 -329 -25 -99 -27 -275 -4 -379 24 -110 87 -229 163 -310 163 -172 374 -271 811 -381 403 -101 475 -126 544 -186 72 -64 92 -139 60 -233 -33 -97 -137 -176 -284 -214 -92 -23 -294 -23 -375 1 -195 58 -315 195 -363 416 l-18 85 -45 -3 c-24 -2 -109 -9 -189 -17 -80 -8 -179 -17 -220 -21 -41 -3 -104 -9 -140 -12 l-65 -7 -1 -35 c-1 -56 33 -226 62 -314 77 -234 214 -405 420 -526 143 -83 293 -128 543 -160 85 -11 157 -23 160 -26 3 -4 -57 -4 -134 -1 -162 7 -302 35 -439 91 -371 149 -583 449 -639 901 l-12 101 358 33 c197 18 359 32 361 30 2 -2 13 -49 25 -104 26 -125 70 -215 136 -281 94 -94 205 -134 375 -135 284 -1 470 108 470 275 0 83 -42 135 -150 185 -39 18 -187 61 -360 105 -333 84 -441 118 -587 186 -257 121 -413 284 -483 505 -30 95 -38 299 -17 402 75 349 358 591 782 667 89 16 331 21 280 5z m435 -18 c391 -89 629 -295 725 -627 24 -81 55 -318 43 -329 -5 -5 -598 -35 -695 -35 l-42 0 -11 58 c-6 31 -20 88 -31 125 -25 86 -79 144 -165 178 -53 21 -75 23 -219 24 -126 0 -174 -4 -228 -19 -163 -45 -222 -159 -125 -241 70 -59 144 -85 491 -171 142 -35 313 -83 380 -105 502 -167 718 -430 718 -874 1 -140 -19 -246 -63 -354 -125 -300 -416 -500 -823 -566 -81 -14 -305 -21 -294 -11 3 3 79 14 169 26 312 39 502 106 668 234 211 162 312 376 312 663 0 259 -61 430 -206 577 -163 165 -343 243 -864 376 -168 43 -331 88 -362 100 -124 46 -198 119 -198 192 0 132 160 211 425 210 268 0 380 -80 430 -305 9 -42 20 -79 25 -82 4 -2 153 2 331 10 178 8 328 15 333 15 18 0 -2 213 -29 305 -109 369 -405 571 -915 624 -177 19 -184 31 -15 26 98 -3 179 -11 235 -24z m-1723 -1073 c-3 -8 -6 -5 -6 6 -1 11 2 17 5 13 3 -3 4 -12 1 -19z"/> </g> </svg> 