<?xml version="1.0" standalone="no"?>
<!DOCTYPE svg PUBLIC "-//W3C//DTD SVG 20010904//EN"
 "http://www.w3.org/TR/2001/REC-SVG-20010904/DTD/svg10.dtd">
<svg version="1.0" xmlns="http://www.w3.org/2000/svg"
 width="300.000000pt" height="300.000000pt" viewBox="0 0 300.000000 300.000000"
 preserveAspectRatio="xMidYMid meet">
<metadata>
Created by potrace 1.10, written by Peter Selinger 2001-2011
</metadata>
<g transform="translate(0.000000,300.000000) scale(0.100000,-0.100000)"
fill="#000000" stroke="none">
<path d="M1240 2984 c-472 -71 -768 -308 -847 -677 -21 -103 -13 -307 17 -402
70 -221 226 -384 483 -505 141 -66 278 -109 602 -190 412 -103 495 -151 495
-286 0 -166 -183 -275 -460 -275 -173 0 -275 34 -376 125 -78 70 -135 196
-159 354 -4 23 -10 42 -13 42 -4 1 -167 -14 -362 -32 l-355 -32 12 -100 c57
-448 261 -743 617 -893 150 -63 344 -104 494 -102 103 0 70 14 -98 40 -301 47
-489 125 -658 275 -158 139 -280 393 -311 648 -4 39 -6 76 -4 82 2 7 56 17
131 24 470 44 493 46 501 36 4 -6 16 -45 26 -86 42 -177 129 -296 268 -366
154 -79 421 -79 594 1 154 70 232 229 172 352 -47 98 -144 142 -508 233 -347
87 -464 125 -616 200 -318 157 -465 375 -465 690 0 136 19 222 74 335 76 155
205 278 380 361 109 51 201 78 384 109 186 32 214 44 97 43 -49 0 -101 -2
-115 -4z"/>
<path d="M1561 2980 c9 -5 86 -21 171 -35 336 -54 513 -134 671 -305 117 -127
194 -312 204 -497 3 -57 4 -103 2 -103 -107 -8 -634 -28 -644 -24 -8 3 -19 31
-26 62 -48 236 -170 324 -449 324 -138 0 -239 -20 -319 -62 -70 -37 -102 -78
-109 -136 -6 -58 11 -96 65 -144 65 -57 170 -96 438 -162 302 -75 422 -110
558 -164 301 -121 463 -281 539 -533 15 -49 22 -105 25 -221 4 -134 2 -167
-16 -242 -36 -151 -96 -263 -200 -372 -166 -172 -369 -262 -716 -315 -176 -27
-206 -40 -95 -40 222 -2 502 77 673 188 288 188 423 473 396 833 -24 322 -181
545 -490 696 -142 69 -295 118 -614 197 -291 72 -399 108 -465 156 -115 84
-72 199 95 252 61 19 92 22 235 22 150 0 170 -3 224 -24 86 -35 140 -92 165
-178 11 -37 25 -94 31 -125 l11 -58 37 0 c92 0 695 30 700 34 11 12 -20 250
-43 330 -101 349 -367 565 -783 637 -120 20 -300 26 -271 9z"/>
</g>
</svg>



